<?xml version="1.0" encoding="us-ascii" standalone="no"?><svg xmlns="http://www.w3.org/2000/svg" xmlns:xlink="http://www.w3.org/1999/xlink" contentStyleType="text/css" height="627px" preserveAspectRatio="none" style="width:1430px;height:627px;background:#FFFFFF;" version="1.1" viewBox="0 0 1430 627" width="1430px" zoomAndPan="magnify"><defs/><g><!--cluster presentationLayer--><g id="cluster_presentationLayer"><path d="M201.5,6 L330.5,6 A3.75,3.75 0 0 1 333,8.5 L340,29.6094 L734.5,29.6094 A2.5,2.5 0 0 1 737,32.1094 L737,261.5 A2.5,2.5 0 0 1 734.5,264 L201.5,264 A2.5,2.5 0 0 1 199,261.5 L199,8.5 A2.5,2.5 0 0 1 201.5,6 " fill="none" style="stroke:#000000;stroke-width:1.5;"/><line style="stroke:#000000;stroke-width:1.5;" x1="199" x2="340" y1="29.6094" y2="29.6094"/><text fill="#000000" font-family="sans-serif" font-size="14" font-weight="bold" lengthAdjust="spacing" textLength="128" x="203" y="22.5332">presentationLayer</text></g><!--cluster DomainLayer--><g id="cluster_DomainLayer"><path d="M8.5,297 L99.5,297 A3.75,3.75 0 0 1 102,299.5 L109,320.6094 L643.5,320.6094 A2.5,2.5 0 0 1 646,323.1094 L646,482.5 A2.5,2.5 0 0 1 643.5,485 L8.5,485 A2.5,2.5 0 0 1 6,482.5 L6,299.5 A2.5,2.5 0 0 1 8.5,297 " fill="none" style="stroke:#000000;stroke-width:1.5;"/><line style="stroke:#000000;stroke-width:1.5;" x1="6" x2="109" y1="320.6094" y2="320.6094"/><text fill="#000000" font-family="sans-serif" font-size="14" font-weight="bold" lengthAdjust="spacing" textLength="90" x="10" y="313.5332">DomainLayer</text></g><!--cluster DataStorageLayer--><g id="cluster_DataStorageLayer"><path d="M672.5,288 L797.5,288 A3.75,3.75 0 0 1 800,290.5 L807,311.6094 L1420.5,311.6094 A2.5,2.5 0 0 1 1423,314.1094 L1423,617.5 A2.5,2.5 0 0 1 1420.5,620 L672.5,620 A2.5,2.5 0 0 1 670,617.5 L670,290.5 A2.5,2.5 0 0 1 672.5,288 " fill="none" style="stroke:#000000;stroke-width:1.5;"/><line style="stroke:#000000;stroke-width:1.5;" x1="670" x2="807" y1="311.6094" y2="311.6094"/><text fill="#000000" font-family="sans-serif" font-size="14" font-weight="bold" lengthAdjust="spacing" textLength="124" x="674" y="304.5332">DataStorageLayer</text></g><!--class Main--><g id="elem_Main"><rect codeLine="3" fill="#F1F1F1" height="206.4844" id="Main" rx="2.5" ry="2.5" style="stroke:#181818;stroke-width:0.5;" width="506" x="215" y="42"/><ellipse cx="448.75" cy="58" fill="#ADD1B2" rx="11" ry="11" style="stroke:#181818;stroke-width:1.0;"/><path d="M451.5156,53.875 Q451.6719,53.6563 451.8594,53.5469 Q452.0469,53.4375 452.2656,53.4375 Q452.6406,53.4375 452.875,53.7031 Q453.1094,53.9531 453.1094,54.5625 L453.1094,56.0156 Q453.1094,56.625 452.875,56.8906 Q452.6406,57.1563 452.2656,57.1563 Q451.9219,57.1563 451.7188,56.9531 Q451.5156,56.7656 451.4063,56.25 Q451.3594,55.8906 451.1719,55.7031 Q450.8438,55.3281 450.2344,55.1094 Q449.625,54.8906 449,54.8906 Q448.2344,54.8906 447.5938,55.2188 Q446.9688,55.5469 446.4688,56.2969 Q445.9844,57.0469 445.9844,58.0781 L445.9844,59.1719 Q445.9844,60.4063 446.875,61.2344 Q447.7656,62.0469 449.3594,62.0469 Q450.2969,62.0469 450.9531,61.7969 Q451.3438,61.6406 451.7656,61.2031 Q452.0313,60.9375 452.1719,60.8594 Q452.3281,60.7813 452.5313,60.7813 Q452.8594,60.7813 453.1094,61.0469 Q453.375,61.2969 453.375,61.6406 Q453.375,61.9844 453.0313,62.3906 Q452.5313,62.9688 451.7344,63.2969 Q450.6563,63.75 449.3594,63.75 Q447.8438,63.75 446.6406,63.125 Q445.6563,62.625 444.9688,61.5625 Q444.2813,60.4844 444.2813,59.2031 L444.2813,58.0469 Q444.2813,56.7188 444.8906,55.5781 Q445.5156,54.4219 446.6094,53.8125 Q447.7031,53.1875 448.9375,53.1875 Q449.6719,53.1875 450.3125,53.3594 Q450.9688,53.5156 451.5156,53.875 Z " fill="#000000"/><text fill="#000000" font-family="sans-serif" font-size="14" lengthAdjust="spacing" textLength="30" x="469.25" y="63.7285">Main</text><line style="stroke:#181818;stroke-width:0.5;" x1="216" x2="720" y1="74" y2="74"/><rect fill="none" height="6" style="stroke:#C82930;stroke-width:1.0;" width="6" x="223" y="85.3047"/><text fill="#000000" font-family="sans-serif" font-size="14" lengthAdjust="spacing" textLength="180" x="235" y="92.5332">invenrory: ArrayList&lt;Candy&gt;</text><rect fill="none" height="6" style="stroke:#C82930;stroke-width:1.0;" width="6" x="223" y="102.9141"/><text fill="#000000" font-family="sans-serif" font-size="14" lengthAdjust="spacing" textLength="257" x="235" y="110.1426">todayPurchases: ArrayList&lt;Transaction&gt;</text><rect fill="none" height="6" style="stroke:#C82930;stroke-width:1.0;" width="6" x="223" y="120.5234"/><text fill="#000000" font-family="sans-serif" font-size="14" lengthAdjust="spacing" textLength="154" x="235" y="127.752">logger: DatabaseLogger</text><line style="stroke:#181818;stroke-width:0.5;" x1="216" x2="720" y1="134.8281" y2="134.8281"/><ellipse cx="226" cy="149.1328" fill="#84BE84" rx="3" ry="3" style="stroke:#038048;stroke-width:1.0;"/><text fill="#000000" font-family="sans-serif" font-size="14" lengthAdjust="spacing" textLength="152" x="235" y="153.3613">startupLocalData(): void</text><ellipse cx="226" cy="166.7422" fill="#84BE84" rx="3" ry="3" style="stroke:#038048;stroke-width:1.0;"/><text fill="#000000" font-family="sans-serif" font-size="14" lengthAdjust="spacing" textLength="84" x="235" y="170.9707">startUI(): void</text><ellipse cx="226" cy="184.3516" fill="#84BE84" rx="3" ry="3" style="stroke:#038048;stroke-width:1.0;"/><text fill="#000000" font-family="sans-serif" font-size="14" lengthAdjust="spacing" textLength="480" x="235" y="188.5801">checkCandyAvailability(candyName: String, oz_purchased: double): boolean</text><ellipse cx="226" cy="201.9609" fill="#84BE84" rx="3" ry="3" style="stroke:#038048;stroke-width:1.0;"/><text fill="#000000" font-family="sans-serif" font-size="14" lengthAdjust="spacing" textLength="418" x="235" y="206.1895">chargeForCandy(candyName: String, oz_purchased: double): void</text><ellipse cx="226" cy="219.5703" fill="#84BE84" rx="3" ry="3" style="stroke:#038048;stroke-width:1.0;"/><text fill="#000000" font-family="sans-serif" font-size="14" lengthAdjust="spacing" textLength="228" x="235" y="223.7988">updateCandyUI(candy: Candy): void</text><ellipse cx="226" cy="237.1797" fill="#84BE84" rx="3" ry="3" style="stroke:#038048;stroke-width:1.0;"/><text fill="#000000" font-family="sans-serif" font-size="14" lengthAdjust="spacing" textLength="242" x="235" y="241.4082">displayTransactions(day: Date): String</text></g><!--class Candy--><g id="elem_Candy"><rect codeLine="19" fill="#F1F1F1" height="136.0469" id="Candy" rx="2.5" ry="2.5" style="stroke:#181818;stroke-width:0.5;" width="312" x="195" y="333"/><ellipse cx="326.25" cy="349" fill="#ADD1B2" rx="11" ry="11" style="stroke:#181818;stroke-width:1.0;"/><path d="M329.0156,344.875 Q329.1719,344.6563 329.3594,344.5469 Q329.5469,344.4375 329.7656,344.4375 Q330.1406,344.4375 330.375,344.7031 Q330.6094,344.9531 330.6094,345.5625 L330.6094,347.0156 Q330.6094,347.625 330.375,347.8906 Q330.1406,348.1563 329.7656,348.1563 Q329.4219,348.1563 329.2188,347.9531 Q329.0156,347.7656 328.9063,347.25 Q328.8594,346.8906 328.6719,346.7031 Q328.3438,346.3281 327.7344,346.1094 Q327.125,345.8906 326.5,345.8906 Q325.7344,345.8906 325.0938,346.2188 Q324.4688,346.5469 323.9688,347.2969 Q323.4844,348.0469 323.4844,349.0781 L323.4844,350.1719 Q323.4844,351.4063 324.375,352.2344 Q325.2656,353.0469 326.8594,353.0469 Q327.7969,353.0469 328.4531,352.7969 Q328.8438,352.6406 329.2656,352.2031 Q329.5313,351.9375 329.6719,351.8594 Q329.8281,351.7813 330.0313,351.7813 Q330.3594,351.7813 330.6094,352.0469 Q330.875,352.2969 330.875,352.6406 Q330.875,352.9844 330.5313,353.3906 Q330.0313,353.9688 329.2344,354.2969 Q328.1563,354.75 326.8594,354.75 Q325.3438,354.75 324.1406,354.125 Q323.1563,353.625 322.4688,352.5625 Q321.7813,351.4844 321.7813,350.2031 L321.7813,349.0469 Q321.7813,347.7188 322.3906,346.5781 Q323.0156,345.4219 324.1094,344.8125 Q325.2031,344.1875 326.4375,344.1875 Q327.1719,344.1875 327.8125,344.3594 Q328.4688,344.5156 329.0156,344.875 Z " fill="#000000"/><text fill="#000000" font-family="sans-serif" font-size="14" lengthAdjust="spacing" textLength="41" x="346.75" y="354.7285">Candy</text><line style="stroke:#181818;stroke-width:0.5;" x1="196" x2="506" y1="365" y2="365"/><rect fill="none" height="6" style="stroke:#C82930;stroke-width:1.0;" width="6" x="203" y="376.3047"/><text fill="#000000" font-family="sans-serif" font-size="14" lengthAdjust="spacing" textLength="80" x="215" y="383.5332">name: String</text><rect fill="none" height="6" style="stroke:#C82930;stroke-width:1.0;" width="6" x="203" y="393.9141"/><text fill="#000000" font-family="sans-serif" font-size="14" lengthAdjust="spacing" textLength="164" x="215" y="401.1426">quantityInStockOz: double</text><rect fill="none" height="6" style="stroke:#C82930;stroke-width:1.0;" width="6" x="203" y="411.5234"/><text fill="#000000" font-family="sans-serif" font-size="14" lengthAdjust="spacing" textLength="116" x="215" y="418.752">costPerOz: double</text><line style="stroke:#181818;stroke-width:0.5;" x1="196" x2="506" y1="425.8281" y2="425.8281"/><rect fill="#F24D5C" height="6" style="stroke:#C82930;stroke-width:1.0;" width="6" x="203" y="437.1328"/><text fill="#000000" font-family="sans-serif" font-size="14" lengthAdjust="spacing" textLength="286" x="215" y="444.3613">calculateCost(oz_purchased: double): double</text><rect fill="#F24D5C" height="6" style="stroke:#C82930;stroke-width:1.0;" width="6" x="203" y="454.7422"/><text fill="#000000" font-family="sans-serif" font-size="14" lengthAdjust="spacing" textLength="275" x="215" y="461.9707">sellQuantity(oz_purchased: double): double</text></g><!--class Transaction--><g id="elem_Transaction"><rect codeLine="27" fill="#F1F1F1" height="118.4375" id="Transaction" rx="2.5" ry="2.5" style="stroke:#181818;stroke-width:0.5;" width="137" x="22.5" y="342"/><ellipse cx="51" cy="358" fill="#ADD1B2" rx="11" ry="11" style="stroke:#181818;stroke-width:1.0;"/><path d="M53.7656,353.875 Q53.9219,353.6563 54.1094,353.5469 Q54.2969,353.4375 54.5156,353.4375 Q54.8906,353.4375 55.125,353.7031 Q55.3594,353.9531 55.3594,354.5625 L55.3594,356.0156 Q55.3594,356.625 55.125,356.8906 Q54.8906,357.1563 54.5156,357.1563 Q54.1719,357.1563 53.9688,356.9531 Q53.7656,356.7656 53.6563,356.25 Q53.6094,355.8906 53.4219,355.7031 Q53.0938,355.3281 52.4844,355.1094 Q51.875,354.8906 51.25,354.8906 Q50.4844,354.8906 49.8438,355.2188 Q49.2188,355.5469 48.7188,356.2969 Q48.2344,357.0469 48.2344,358.0781 L48.2344,359.1719 Q48.2344,360.4063 49.125,361.2344 Q50.0156,362.0469 51.6094,362.0469 Q52.5469,362.0469 53.2031,361.7969 Q53.5938,361.6406 54.0156,361.2031 Q54.2813,360.9375 54.4219,360.8594 Q54.5781,360.7813 54.7813,360.7813 Q55.1094,360.7813 55.3594,361.0469 Q55.625,361.2969 55.625,361.6406 Q55.625,361.9844 55.2813,362.3906 Q54.7813,362.9688 53.9844,363.2969 Q52.9063,363.75 51.6094,363.75 Q50.0938,363.75 48.8906,363.125 Q47.9063,362.625 47.2188,361.5625 Q46.5313,360.4844 46.5313,359.2031 L46.5313,358.0469 Q46.5313,356.7188 47.1406,355.5781 Q47.7656,354.4219 48.8594,353.8125 Q49.9531,353.1875 51.1875,353.1875 Q51.9219,353.1875 52.5625,353.3594 Q53.2188,353.5156 53.7656,353.875 Z " fill="#000000"/><text fill="#000000" font-family="sans-serif" font-size="14" lengthAdjust="spacing" textLength="75" x="68" y="363.7285">Transaction</text><line style="stroke:#181818;stroke-width:0.5;" x1="23.5" x2="158.5" y1="374" y2="374"/><rect fill="none" height="6" style="stroke:#C82930;stroke-width:1.0;" width="6" x="30.5" y="385.3047"/><text fill="#000000" font-family="sans-serif" font-size="14" lengthAdjust="spacing" textLength="61" x="42.5" y="392.5332">day: Date</text><rect fill="none" height="6" style="stroke:#C82930;stroke-width:1.0;" width="6" x="30.5" y="402.9141"/><text fill="#000000" font-family="sans-serif" font-size="14" lengthAdjust="spacing" textLength="111" x="42.5" y="410.1426">candySold: String</text><rect fill="none" height="6" style="stroke:#C82930;stroke-width:1.0;" width="6" x="30.5" y="420.5234"/><text fill="#000000" font-family="sans-serif" font-size="14" lengthAdjust="spacing" textLength="101" x="42.5" y="427.752">quantity: double</text><rect fill="none" height="6" style="stroke:#C82930;stroke-width:1.0;" width="6" x="30.5" y="438.1328"/><text fill="#000000" font-family="sans-serif" font-size="14" lengthAdjust="spacing" textLength="77" x="42.5" y="445.3613">cost: double</text><line style="stroke:#181818;stroke-width:0.5;" x1="23.5" x2="158.5" y1="452.4375" y2="452.4375"/></g><!--class Date--><g id="elem_Date"><rect codeLine="34" fill="#F1F1F1" height="100.8281" id="Date" rx="2.5" ry="2.5" style="stroke:#181818;stroke-width:0.5;" width="88" x="542" y="350.5"/><ellipse cx="568.7" cy="366.5" fill="#ADD1B2" rx="11" ry="11" style="stroke:#181818;stroke-width:1.0;"/><path d="M571.4656,362.375 Q571.6219,362.1563 571.8094,362.0469 Q571.9969,361.9375 572.2156,361.9375 Q572.5906,361.9375 572.825,362.2031 Q573.0594,362.4531 573.0594,363.0625 L573.0594,364.5156 Q573.0594,365.125 572.825,365.3906 Q572.5906,365.6563 572.2156,365.6563 Q571.8719,365.6563 571.6688,365.4531 Q571.4656,365.2656 571.3563,364.75 Q571.3094,364.3906 571.1219,364.2031 Q570.7938,363.8281 570.1844,363.6094 Q569.575,363.3906 568.95,363.3906 Q568.1844,363.3906 567.5438,363.7188 Q566.9188,364.0469 566.4188,364.7969 Q565.9344,365.5469 565.9344,366.5781 L565.9344,367.6719 Q565.9344,368.9063 566.825,369.7344 Q567.7156,370.5469 569.3094,370.5469 Q570.2469,370.5469 570.9031,370.2969 Q571.2938,370.1406 571.7156,369.7031 Q571.9813,369.4375 572.1219,369.3594 Q572.2781,369.2813 572.4813,369.2813 Q572.8094,369.2813 573.0594,369.5469 Q573.325,369.7969 573.325,370.1406 Q573.325,370.4844 572.9813,370.8906 Q572.4813,371.4688 571.6844,371.7969 Q570.6063,372.25 569.3094,372.25 Q567.7938,372.25 566.5906,371.625 Q565.6063,371.125 564.9188,370.0625 Q564.2313,368.9844 564.2313,367.7031 L564.2313,366.5469 Q564.2313,365.2188 564.8406,364.0781 Q565.4656,362.9219 566.5594,362.3125 Q567.6531,361.6875 568.8875,361.6875 Q569.6219,361.6875 570.2625,361.8594 Q570.9188,362.0156 571.4656,362.375 Z " fill="#000000"/><text fill="#000000" font-family="sans-serif" font-size="14" lengthAdjust="spacing" textLength="30" x="585.3" y="372.2285">Date</text><line style="stroke:#181818;stroke-width:0.5;" x1="543" x2="629" y1="382.5" y2="382.5"/><ellipse cx="553" cy="396.8047" fill="none" rx="3" ry="3" style="stroke:#038048;stroke-width:1.0;"/><text fill="#000000" font-family="sans-serif" font-size="14" lengthAdjust="spacing" textLength="51" x="562" y="401.0332">year: int</text><ellipse cx="553" cy="414.4141" fill="none" rx="3" ry="3" style="stroke:#038048;stroke-width:1.0;"/><text fill="#000000" font-family="sans-serif" font-size="14" lengthAdjust="spacing" textLength="62" x="562" y="418.6426">month: int</text><ellipse cx="553" cy="432.0234" fill="none" rx="3" ry="3" style="stroke:#038048;stroke-width:1.0;"/><text fill="#000000" font-family="sans-serif" font-size="14" lengthAdjust="spacing" textLength="46" x="562" y="436.252">day: int</text><line style="stroke:#181818;stroke-width:0.5;" x1="543" x2="629" y1="443.3281" y2="443.3281"/></g><!--class DatabaseLogger--><g id="elem_DatabaseLogger"><rect codeLine="42" fill="#F1F1F1" height="153.6563" id="DatabaseLogger" rx="2.5" ry="2.5" style="stroke:#181818;stroke-width:0.5;" width="395" x="686.5" y="324"/><ellipse cx="826.75" cy="340" fill="#ADD1B2" rx="11" ry="11" style="stroke:#181818;stroke-width:1.0;"/><path d="M829.5156,335.875 Q829.6719,335.6563 829.8594,335.5469 Q830.0469,335.4375 830.2656,335.4375 Q830.6406,335.4375 830.875,335.7031 Q831.1094,335.9531 831.1094,336.5625 L831.1094,338.0156 Q831.1094,338.625 830.875,338.8906 Q830.6406,339.1563 830.2656,339.1563 Q829.9219,339.1563 829.7188,338.9531 Q829.5156,338.7656 829.4063,338.25 Q829.3594,337.8906 829.1719,337.7031 Q828.8438,337.3281 828.2344,337.1094 Q827.625,336.8906 827,336.8906 Q826.2344,336.8906 825.5938,337.2188 Q824.9688,337.5469 824.4688,338.2969 Q823.9844,339.0469 823.9844,340.0781 L823.9844,341.1719 Q823.9844,342.4063 824.875,343.2344 Q825.7656,344.0469 827.3594,344.0469 Q828.2969,344.0469 828.9531,343.7969 Q829.3438,343.6406 829.7656,343.2031 Q830.0313,342.9375 830.1719,342.8594 Q830.3281,342.7813 830.5313,342.7813 Q830.8594,342.7813 831.1094,343.0469 Q831.375,343.2969 831.375,343.6406 Q831.375,343.9844 831.0313,344.3906 Q830.5313,344.9688 829.7344,345.2969 Q828.6563,345.75 827.3594,345.75 Q825.8438,345.75 824.6406,345.125 Q823.6563,344.625 822.9688,343.5625 Q822.2813,342.4844 822.2813,341.2031 L822.2813,340.0469 Q822.2813,338.7188 822.8906,337.5781 Q823.5156,336.4219 824.6094,335.8125 Q825.7031,335.1875 826.9375,335.1875 Q827.6719,335.1875 828.3125,335.3594 Q828.9688,335.5156 829.5156,335.875 Z " fill="#000000"/><text fill="#000000" font-family="sans-serif" font-size="14" lengthAdjust="spacing" textLength="106" x="847.25" y="345.7285">DatabaseLogger</text><line style="stroke:#181818;stroke-width:0.5;" x1="687.5" x2="1080.5" y1="356" y2="356"/><rect fill="none" height="6" style="stroke:#C82930;stroke-width:1.0;" width="6" x="694.5" y="367.3047"/><text fill="#000000" font-family="sans-serif" font-size="14" lengthAdjust="spacing" textLength="210" x="706.5" y="374.5332">connection: DatabaseConnection</text><rect fill="none" height="6" style="stroke:#C82930;stroke-width:1.0;" width="6" x="694.5" y="384.9141"/><text fill="#000000" font-family="sans-serif" font-size="14" lengthAdjust="spacing" textLength="243" x="706.5" y="392.1426">startDatabaseConnectionString: String</text><line style="stroke:#181818;stroke-width:0.5;" x1="687.5" x2="1080.5" y1="399.2188" y2="399.2188"/><ellipse cx="697.5" cy="413.5234" fill="#84BE84" rx="3" ry="3" style="stroke:#038048;stroke-width:1.0;"/><text fill="#000000" font-family="sans-serif" font-size="14" lengthAdjust="spacing" textLength="324" x="706.5" y="417.752">startConnection(dataBaseConnectionString: String)</text><ellipse cx="697.5" cy="431.1328" fill="#84BE84" rx="3" ry="3" style="stroke:#038048;stroke-width:1.0;"/><text fill="#000000" font-family="sans-serif" font-size="14" lengthAdjust="spacing" textLength="216" x="706.5" y="435.3613">updateCandy(candy: Candy): void</text><ellipse cx="697.5" cy="448.7422" fill="#84BE84" rx="3" ry="3" style="stroke:#038048;stroke-width:1.0;"/><text fill="#000000" font-family="sans-serif" font-size="14" lengthAdjust="spacing" textLength="304" x="706.5" y="452.9707">storeTransaction(transaction: Transaction): void</text><ellipse cx="697.5" cy="466.3516" fill="#84BE84" rx="3" ry="3" style="stroke:#038048;stroke-width:1.0;"/><text fill="#000000" font-family="sans-serif" font-size="14" lengthAdjust="spacing" textLength="369" x="706.5" y="470.5801">getTranscationsByDay(day: Date): ArrayList&lt;Transaction&gt;</text></g><!--class DatabaseConnection--><g id="elem_DatabaseConnection"><rect codeLine="51" fill="#F1F1F1" height="65.6094" id="DatabaseConnection" rx="2.5" ry="2.5" style="stroke:#181818;stroke-width:0.5;" width="249" x="686.5" y="538"/><ellipse cx="740.25" cy="554" fill="#ADD1B2" rx="11" ry="11" style="stroke:#181818;stroke-width:1.0;"/><path d="M743.0156,549.875 Q743.1719,549.6563 743.3594,549.5469 Q743.5469,549.4375 743.7656,549.4375 Q744.1406,549.4375 744.375,549.7031 Q744.6094,549.9531 744.6094,550.5625 L744.6094,552.0156 Q744.6094,552.625 744.375,552.8906 Q744.1406,553.1563 743.7656,553.1563 Q743.4219,553.1563 743.2188,552.9531 Q743.0156,552.7656 742.9063,552.25 Q742.8594,551.8906 742.6719,551.7031 Q742.3438,551.3281 741.7344,551.1094 Q741.125,550.8906 740.5,550.8906 Q739.7344,550.8906 739.0938,551.2188 Q738.4688,551.5469 737.9688,552.2969 Q737.4844,553.0469 737.4844,554.0781 L737.4844,555.1719 Q737.4844,556.4063 738.375,557.2344 Q739.2656,558.0469 740.8594,558.0469 Q741.7969,558.0469 742.4531,557.7969 Q742.8438,557.6406 743.2656,557.2031 Q743.5313,556.9375 743.6719,556.8594 Q743.8281,556.7813 744.0313,556.7813 Q744.3594,556.7813 744.6094,557.0469 Q744.875,557.2969 744.875,557.6406 Q744.875,557.9844 744.5313,558.3906 Q744.0313,558.9688 743.2344,559.2969 Q742.1563,559.75 740.8594,559.75 Q739.3438,559.75 738.1406,559.125 Q737.1563,558.625 736.4688,557.5625 Q735.7813,556.4844 735.7813,555.2031 L735.7813,554.0469 Q735.7813,552.7188 736.3906,551.5781 Q737.0156,550.4219 738.1094,549.8125 Q739.2031,549.1875 740.4375,549.1875 Q741.1719,549.1875 741.8125,549.3594 Q742.4688,549.5156 743.0156,549.875 Z " fill="#000000"/><text fill="#000000" font-family="sans-serif" font-size="14" lengthAdjust="spacing" textLength="133" x="760.75" y="559.7285">DatabaseConnection</text><line style="stroke:#181818;stroke-width:0.5;" x1="687.5" x2="934.5" y1="570" y2="570"/><line style="stroke:#181818;stroke-width:0.5;" x1="687.5" x2="934.5" y1="578" y2="578"/><ellipse cx="697.5" cy="592.3047" fill="#84BE84" rx="3" ry="3" style="stroke:#038048;stroke-width:1.0;"/><text fill="#000000" font-family="sans-serif" font-size="14" lengthAdjust="spacing" textLength="223" x="706.5" y="596.5332">query(sqlQuery: String): RowResult</text></g><!--class RowResult--><g id="elem_RowResult"><rect codeLine="55" fill="#F1F1F1" height="65.6094" id="RowResult" rx="2.5" ry="2.5" style="stroke:#181818;stroke-width:0.5;" width="436" x="971" y="538"/><ellipse cx="1151.25" cy="554" fill="#ADD1B2" rx="11" ry="11" style="stroke:#181818;stroke-width:1.0;"/><path d="M1154.0156,549.875 Q1154.1719,549.6563 1154.3594,549.5469 Q1154.5469,549.4375 1154.7656,549.4375 Q1155.1406,549.4375 1155.375,549.7031 Q1155.6094,549.9531 1155.6094,550.5625 L1155.6094,552.0156 Q1155.6094,552.625 1155.375,552.8906 Q1155.1406,553.1563 1154.7656,553.1563 Q1154.4219,553.1563 1154.2188,552.9531 Q1154.0156,552.7656 1153.9063,552.25 Q1153.8594,551.8906 1153.6719,551.7031 Q1153.3438,551.3281 1152.7344,551.1094 Q1152.125,550.8906 1151.5,550.8906 Q1150.7344,550.8906 1150.0938,551.2188 Q1149.4688,551.5469 1148.9688,552.2969 Q1148.4844,553.0469 1148.4844,554.0781 L1148.4844,555.1719 Q1148.4844,556.4063 1149.375,557.2344 Q1150.2656,558.0469 1151.8594,558.0469 Q1152.7969,558.0469 1153.4531,557.7969 Q1153.8438,557.6406 1154.2656,557.2031 Q1154.5313,556.9375 1154.6719,556.8594 Q1154.8281,556.7813 1155.0313,556.7813 Q1155.3594,556.7813 1155.6094,557.0469 Q1155.875,557.2969 1155.875,557.6406 Q1155.875,557.9844 1155.5313,558.3906 Q1155.0313,558.9688 1154.2344,559.2969 Q1153.1563,559.75 1151.8594,559.75 Q1150.3438,559.75 1149.1406,559.125 Q1148.1563,558.625 1147.4688,557.5625 Q1146.7813,556.4844 1146.7813,555.2031 L1146.7813,554.0469 Q1146.7813,552.7188 1147.3906,551.5781 Q1148.0156,550.4219 1149.1094,549.8125 Q1150.2031,549.1875 1151.4375,549.1875 Q1152.1719,549.1875 1152.8125,549.3594 Q1153.4688,549.5156 1154.0156,549.875 Z " fill="#000000"/><text fill="#000000" font-family="sans-serif" font-size="14" lengthAdjust="spacing" textLength="67" x="1171.75" y="559.7285">RowResult</text><line style="stroke:#181818;stroke-width:0.5;" x1="972" x2="1406" y1="570" y2="570"/><line style="stroke:#181818;stroke-width:0.5;" x1="972" x2="1406" y1="578" y2="578"/><ellipse cx="982" cy="592.3047" fill="#84BE84" rx="3" ry="3" style="stroke:#038048;stroke-width:1.0;"/><text fill="#000000" font-family="sans-serif" font-size="14" lengthAdjust="spacing" textLength="410" x="991" y="596.5332">getRowDataAsString(columnName: String, resultIndex: int): String</text></g><!--link Main to DatabaseLogger--><g id="link_Main_DatabaseLogger"><path codeLine="60" d="M635.11,248.03 C676.56,273.34 715.1494,296.9028 754.1694,320.7328 " fill="none" id="Main-to-DatabaseLogger" style="stroke:#181818;stroke-width:1.0;"/><polygon fill="#181818" points="759.29,323.86,753.6939,315.7554,755.0228,321.254,749.5243,322.5829,759.29,323.86" style="stroke:#181818;stroke-width:1.0;"/></g><!--link Main to Candy--><g id="link_Main_Candy"><path codeLine="61" d="M420.92,248.21 C407.77,276.75 396.3405,301.5705 384.3905,327.5105 " fill="none" id="Main-to-Candy" style="stroke:#181818;stroke-width:1.0;"/><polygon fill="#181818" points="381.88,332.96,389.2788,326.4593,383.9721,328.4187,382.0127,323.112,381.88,332.96" style="stroke:#181818;stroke-width:1.0;"/><text fill="#000000" font-family="sans-serif" font-size="13" lengthAdjust="spacing" textLength="5" x="379.9841" y="322.1549">*</text></g><!--link Main to Transaction--><g id="link_Main_Transaction"><path codeLine="62" d="M221.03,248.21 C205.56,258.07 190.72,268.67 177,280 C156.25,297.14 141.3642,315.3984 127.1242,336.8884 " fill="none" id="Main-to-Transaction" style="stroke:#181818;stroke-width:1.0;"/><polygon fill="#181818" points="123.81,341.89,132.1157,336.5971,126.5719,337.722,125.4469,332.1781,123.81,341.89" style="stroke:#181818;stroke-width:1.0;"/><text fill="#000000" font-family="sans-serif" font-size="13" lengthAdjust="spacing" textLength="5" x="122.504" y="331.2008">*</text></g><!--link Main to Date--><g id="link_Main_Date"><path codeLine="63" d="M515.49,248.21 C531.82,283.37 546.842,315.7086 560.352,344.7886 " fill="none" id="Main-to-Date" style="stroke:#181818;stroke-width:1.0;"/><polygon fill="#181818" points="562.88,350.23,562.7156,340.3825,560.7733,345.6955,555.4604,343.7532,562.88,350.23" style="stroke:#181818;stroke-width:1.0;"/></g><!--link DatabaseLogger to Date--><g id="link_DatabaseLogger_Date"><path codeLine="64" d="M686.24,367.18 C667.57,370.29 654.5502,373.1614 635.8802,379.8314 " fill="none" id="DatabaseLogger-to-Date" style="stroke:#181818;stroke-width:1.0;"/><polygon fill="#181818" points="630.23,381.85,640.0511,382.5889,634.9385,380.1678,637.3596,375.0553,630.23,381.85" style="stroke:#181818;stroke-width:1.0;"/></g><!--link DatabaseLogger to DatabaseConnection--><g id="link_DatabaseLogger_DatabaseConnection"><path codeLine="65" d="M850.92,478.14 C841.79,499.15 834.7608,515.3169 827.3708,532.3269 " fill="none" id="DatabaseLogger-to-DatabaseConnection" style="stroke:#181818;stroke-width:1.0;"/><polygon fill="#181818" points="824.98,537.83,832.235,531.1692,826.9723,533.2441,824.8975,527.9815,824.98,537.83" style="stroke:#181818;stroke-width:1.0;"/></g><!--link DatabaseLogger to RowResult--><g id="link_DatabaseLogger_RowResult"><path codeLine="66" d="M1022.22,478.14 C1060.36,499.15 1094.4542,517.9258 1125.3442,534.9358 " fill="none" id="DatabaseLogger-to-RowResult" style="stroke:#181818;stroke-width:1.0;"/><polygon fill="#181818" points="1130.6,537.83,1124.6457,529.9848,1126.2201,535.4182,1120.7868,536.9926,1130.6,537.83" style="stroke:#181818;stroke-width:1.0;"/></g><!--link DatabaseConnection to RowResult--><g id="link_DatabaseConnection_RowResult"><path codeLine="67" d="M935.77,571 C947.47,571 953.18,571 964.89,571 " fill="none" id="DatabaseConnection-to-RowResult" style="stroke:#181818;stroke-width:1.0;"/><polygon fill="#181818" points="970.89,571,961.89,567,965.89,571,961.89,575,970.89,571" style="stroke:#181818;stroke-width:1.0;"/></g><!--SRC=[bLHBRjim4Dth54HMIjDSG2WCE34A673RD6xNnPWQo8HfKYOfjupXkvUa596IRACLj91ctlpUV6gWEwYGr0er2WE6IR42Y-gKPSGzb8FMv0imSGh__dbaueX2IMKBCbSAx8ffy-aPH6bd4MHa2VQbKNGB6dMA_A50QA0-L8BdigfG5MG11ZREP1N-inxme0qeqzGhIO5xK7vVaADavGZnSpbLq2tINKXmVWJ6OSCuCpQdNl8LzbYGjL5CL1-9VFjLTpcN1Ibbi-7et6sav0WYzGYgmizI1Q__uMcOM5ENO33uS7a7BmK9lnDeoNJDmIRawTmn70ZpZjku0N_EClVMNMiNSk_QrpKrzZH4IPegakoZzD20C8whfLWRINVVtjvBYH0gjNb1TL45d3RSL-Wm-HL6naOQEV_UXVq7ctCwg0axIMazJMbchlgrvENraYzNUZss3n23FbW4DyrCc2ZQIs6s8rd8xLro7lJDpRWZNRdlIVE6It9AKnG2G_rnavvxMKAoNvKfeELYmacxMH7c1i_0qmtB-uiZVdl0jQiLamRc9duNQMSdbXMQeARXVEadkm0xs8qRjsVSmX4XIKCF3IgRwuCRJlIdhwkq8A_ozolgXfkfmrvr6cJhn3xKNBS-SYfvinV3-w62tLAK-2SCo7Z5NHn_bjrqFyx6HxDNt7suQzaUYX8MEiMitO-XdwlYD6GoNPTWaPof0KdrVm40]--></g></svg>